<svg width="126" height="39" viewBox="0 0 126 39" fill="none" xmlns="http://www.w3.org/2000/svg">
<g clip-path="url(#clip0_58_277)">
<path d="M125.5 18.7531V20.2469C125.5 30.5992 115.624 39 103.453 39L22.5468 39C10.3762 39 0.500008 30.5992 0.500008 20.2469V18.7531C0.500008 8.40076 10.3762 0 22.5468 0L103.453 0C115.624 0 125.5 8.40076 125.5 18.7531Z" fill="white"/>
<path d="M103.421 4.39935H22.5212C13.3537 4.39935 5.922 10.7208 5.922 18.5187V20.0124C5.922 27.8104 13.3537 34.1318 22.5212 34.1318H103.421C112.589 34.1318 120.02 27.8104 120.02 20.0124V18.5187C120.02 10.7208 112.589 4.39935 103.421 4.39935Z" fill="#BE2A2F"/>
<path d="M115.367 14.3701C115.367 20.6884 91.4557 25.8128 61.9553 25.8128C32.455 25.8128 8.54321 20.6884 8.54321 14.3701C8.54321 8.05186 32.4614 4.39935 61.9553 4.39935C91.4493 4.39935 115.367 8.05186 115.367 14.3701Z" fill="#91230D"/>
<path d="M114.445 16.3272C114.445 21.5661 90.9431 25.8128 61.9554 25.8128C32.9678 25.8128 9.46619 21.5661 9.46619 16.3272C9.46619 11.0883 32.9678 9.54012 61.9554 9.54012C90.9431 9.54012 114.445 11.0883 114.445 16.3272Z" fill="#282828"/>
<path d="M115.323 15.2042C115.323 15.2042 112.144 18.4751 98.1658 18.4315C90.9878 18.4097 89.6099 25.0714 81.9769 25.7474C74.3502 26.4234 90.7892 28.0152 90.7892 28.0152L113.893 19.898L115.316 15.1988L115.323 15.2042Z" fill="#BE2A2F"/>
<path d="M8.50476 15.2042C8.50476 15.2042 11.6836 18.4751 25.6615 18.4315C32.8395 18.4097 34.2174 25.0714 41.8505 25.7474C49.4771 26.4234 33.0382 28.0152 33.0382 28.0152L9.92755 19.9034L8.50476 15.2042Z" fill="#BE2A2F"/>
<path d="M97.9544 24.8479C98.2557 24.4118 98.9607 24.3246 99.4029 24.668C100.082 25.2023 101.005 26.0091 100.915 26.407C100.774 27.0285 99.5695 28.4895 98.7171 28.2006C98.2621 28.0479 97.038 26.1835 97.9544 24.8425V24.8479Z" fill="#282828"/>
<path d="M109.08 24.8479C108.779 24.4118 108.074 24.3246 107.632 24.668C106.953 25.2023 106.03 26.0091 106.119 26.407C106.26 27.0285 107.465 28.4895 108.318 28.2006C108.773 28.0479 109.997 26.1835 109.08 24.8425V24.8479Z" fill="#282828"/>
<path d="M101.262 20.792C100.518 21.0482 99.608 21.7133 99.7426 23.1525C99.8644 24.4718 100.371 25.1587 101.242 25.0714C102.114 24.9842 102.466 25.5948 102.96 24.9515C103.55 24.1828 102.973 22.1167 102.851 21.8768C102.569 21.3044 102.306 20.4377 101.262 20.7975V20.792Z" fill="#282828"/>
<path d="M104.812 20.7375C103.524 20.9392 102.838 24.5208 105.19 25.1968C107.286 25.7965 107.683 20.285 104.812 20.7375Z" fill="#282828"/>
<path d="M103.601 25.453C105.267 25.453 104.21 27.2738 105.889 28.0043C108.093 28.9638 106.536 31.019 105.35 30.91C104.485 30.8282 104.421 30.4084 103.428 30.3158C102.159 30.1958 102.562 30.6538 101.62 30.7737C101.293 30.8173 99.6784 30.9972 99.7297 29.5144C99.781 28.0316 100.973 28.1733 101.627 27.8244C102.62 27.3011 102.229 25.4585 103.601 25.4585V25.453Z" fill="#282828"/>
</g>
<defs>
<clipPath id="clip0_58_277">
<rect width="125" height="39" fill="white" transform="translate(0.5)"/>
</clipPath>
</defs>
</svg>
