<svg width="153" height="125" viewBox="0 0 153 125" fill="none" xmlns="http://www.w3.org/2000/svg">
<g clip-path="url(#clip0_992_2661)">
<path d="M152.86 45.3001C152.86 49.2901 148.56 51.8101 145.08 49.8501L127.98 40.2301C129.04 42.7601 129.62 45.5601 129.62 48.4401V104.7C129.62 115.6 121.52 124.44 111.52 124.44H41.34C31.34 124.44 23.24 115.6 23.24 104.7V48.4401C23.24 45.5601 23.82 42.7601 24.88 40.2301L7.78 49.8601C4.3 51.8201 0 49.3001 0 45.3101C0 44.3701 0.26 43.4601 0.72 42.6701C1.18 41.8901 1.84 41.2201 2.66 40.7601L73.87 0.670117C75.46 -0.229883 77.4 -0.229883 78.99 0.670117L150.2 40.7501C151.84 41.6701 152.86 43.4101 152.86 45.3001Z" fill="#BE2A2F"/>
<path d="M99.83 64.7101C104.52 77.2301 85.65 89.9501 78.9 94.0201C77.47 94.8801 75.69 94.8801 74.27 94.0201C67.34 89.8101 47.56 76.5101 53.33 64.7101C58.5 54.1501 68.5 60.6701 73.47 64.9001C75.17 66.3501 77.67 66.3401 79.34 64.8601C84.55 60.2501 95.35 52.7301 99.83 64.7001V64.7101Z" fill="#F0F0F0"/>
</g>
<defs>
<clipPath id="clip0_992_2661">
<rect width="152.86" height="124.44" fill="white"/>
</clipPath>
</defs>
</svg>
