<svg width="160" height="38" viewBox="0 0 160 38" fill="none" xmlns="http://www.w3.org/2000/svg">
<path d="M0 18.5957C0 17.8982 0.0476725 17.0104 0.143018 15.9324C0.238363 14.8227 0.397271 13.6654 0.619743 12.4606C0.842214 11.224 1.11236 10.0033 1.43018 8.7985C1.77977 7.56195 2.17704 6.45223 2.62199 5.46934C3.09871 4.48644 3.639 3.69378 4.24285 3.09136C4.84671 2.45724 5.53001 2.14018 6.29277 2.14018C7.1191 2.14018 7.83418 2.44139 8.43804 3.04381C9.07367 3.61452 9.39149 4.31206 9.39149 5.13642C9.39149 5.48519 9.31203 5.84981 9.15312 6.23029C9.026 6.61076 8.86709 7.00709 8.6764 7.41927C8.48571 7.79975 8.27913 8.18022 8.05665 8.5607C7.86597 8.90947 7.70706 9.25824 7.57993 9.60701C7.26211 10.3997 6.97608 11.2716 6.72182 12.2228C6.46757 13.1423 6.26099 14.0617 6.10208 14.9812C7.91364 13.9032 9.48683 12.6191 10.8217 11.1289C12.1883 9.60701 13.2053 7.84731 13.8727 5.84981C14.0634 5.31081 14.2223 4.70838 14.3494 4.04255C14.5083 3.34501 14.699 2.71089 14.9215 2.14018C15.1758 1.53776 15.5254 1.03046 15.9703 0.618273C16.4152 0.206091 17.035 0 17.8295 0C18.6558 0 19.3709 0.30121 19.9748 0.903629C20.6104 1.50605 20.9282 2.21944 20.9282 3.04381C20.9282 3.5194 20.8329 4.12182 20.6422 4.85106C20.4515 5.5486 20.2767 6.15102 20.1178 6.65832C19.3868 9.09971 18.3698 11.224 17.0668 13.0313C15.7955 14.8385 14.2223 16.4873 12.3472 17.9775C14.5719 19.4994 16.2087 21.3859 17.2575 23.637C18.338 25.8882 19.1326 28.3454 19.6411 31.0088C19.7682 31.6746 19.8794 32.3404 19.9748 33.0063C20.1019 33.6721 20.1655 34.3379 20.1655 35.0038C20.1655 35.8281 19.8636 36.5257 19.2597 37.0964C18.6558 37.6988 17.9408 38 17.1144 38C16.2245 38 15.5412 37.7464 15.0645 37.2391C14.6196 36.7635 14.2859 36.161 14.0634 35.4318C13.8409 34.7343 13.6979 34.005 13.6343 33.2441C13.5708 32.4514 13.4754 31.7539 13.3483 31.1514C13.1258 30.01 12.8398 28.9479 12.4902 27.965C12.1724 26.9821 11.7433 26.1101 11.203 25.3492C10.6628 24.5565 9.97945 23.8748 9.15312 23.3041C8.35858 22.7017 7.35746 22.2261 6.14975 21.8773C6.37223 22.9871 6.65826 24.0809 7.00786 25.1589C7.35746 26.2053 7.72295 27.2357 8.10433 28.2503C8.3268 28.8527 8.59694 29.5186 8.91476 30.2478C9.23258 30.9771 9.39149 31.6587 9.39149 32.2929C9.39149 33.1172 9.07367 33.8306 8.43804 34.433C7.83418 35.0038 7.1191 35.2891 6.29277 35.2891C5.40288 35.2891 4.62423 34.9245 3.95682 34.1952C3.48009 33.7196 3.00337 32.8636 2.52664 31.627C2.04992 30.3588 1.62087 28.9637 1.23949 27.4418C0.889887 25.8882 0.587961 24.3187 0.333708 22.7334C0.111236 21.1481 0 19.7689 0 18.5957Z" fill="#BE2A2F"/>
<path d="M35.4155 17.4068C36.3689 17.4068 37.2588 17.3433 38.0851 17.2165C38.9114 17.0897 39.6265 16.9153 40.2304 16.6934C40.866 16.4714 41.3586 16.2178 41.7082 15.9324C42.0578 15.6154 42.2326 15.2824 42.2326 14.9337C42.2326 14.0142 42.1055 13.0947 41.8513 12.1752C41.6288 11.2557 41.3586 10.3838 41.0408 9.55945C40.7866 8.86191 40.4529 8.13267 40.0397 7.37172C39.6265 6.57906 39.42 5.81811 39.42 5.08886C39.42 4.70839 39.4994 4.34376 39.6583 3.99499C39.849 3.61452 40.0715 3.29746 40.3257 3.04381C40.6118 2.75845 40.9296 2.5365 41.2792 2.37797C41.6288 2.21944 41.9943 2.14018 42.3757 2.14018C43.1702 2.14018 43.8535 2.47309 44.4256 3.13892C45.0294 3.77305 45.5379 4.59741 45.9511 5.61202C46.396 6.59491 46.7456 7.72048 46.9999 8.98874C47.2859 10.2253 47.5084 11.4618 47.6673 12.6984C47.858 13.9032 47.9851 15.0288 48.0487 16.0751C48.1122 17.0897 48.144 17.8982 48.144 18.5006C48.144 19.0396 48.1122 19.8323 48.0487 20.8786C47.9851 21.8932 47.858 23.0188 47.6673 24.2553C47.5084 25.4919 47.2859 26.7601 46.9999 28.0601C46.7139 29.3283 46.3484 30.4856 45.9034 31.5319C45.4903 32.5782 44.9817 33.4343 44.3779 34.1001C43.8058 34.766 43.1384 35.0989 42.3757 35.0989C41.9943 35.0989 41.6288 35.0196 41.2792 34.8611C40.9296 34.7025 40.6118 34.4965 40.3257 34.2428C40.0715 33.9574 39.849 33.6404 39.6583 33.2916C39.4994 32.9111 39.42 32.5148 39.42 32.1026C39.42 31.4685 39.563 30.8027 39.849 30.1051C40.135 29.3759 40.3893 28.7101 40.6118 28.1076C40.8025 27.5686 41.0249 26.9028 41.2792 26.1101C41.5334 25.2858 41.7559 24.509 41.9466 23.7797C42.1691 23.0188 42.328 22.3688 42.4233 21.8298C42.5504 21.2908 42.5663 21.0213 42.471 21.0213C41.5175 21.7188 40.3575 22.1944 38.9909 22.4481C37.6243 22.7017 36.353 22.8285 35.1771 22.8285C33.9058 22.7968 32.6505 22.6542 31.411 22.4005C30.1715 22.1151 29.1386 21.6554 28.3123 21.0213C28.2169 21.0213 28.2169 21.2908 28.3123 21.8298C28.4394 22.3688 28.5983 23.0188 28.789 23.7797C29.0115 24.509 29.2498 25.2858 29.5041 26.1101C29.7583 26.9028 29.9808 27.5686 30.1715 28.1076C30.394 28.7101 30.6482 29.3759 30.9342 30.1051C31.2203 30.8027 31.3633 31.4685 31.3633 32.1026C31.3633 32.5148 31.268 32.9111 31.0773 33.2916C30.9184 33.6404 30.6959 33.9574 30.4098 34.2428C30.1556 34.4965 29.8537 34.7025 29.5041 34.8611C29.1545 35.0196 28.789 35.0989 28.4076 35.0989C27.6448 35.0989 26.9615 34.766 26.3577 34.1001C25.7856 33.4343 25.2771 32.5782 24.8322 31.5319C24.419 30.4856 24.0694 29.3283 23.7834 28.0601C23.4973 26.7601 23.259 25.4919 23.0683 24.2553C22.9094 23.0188 22.7981 21.8932 22.7346 20.8786C22.671 19.8323 22.6392 19.0396 22.6392 18.5006C22.6392 17.8982 22.671 17.0897 22.7346 16.0751C22.7981 15.0288 22.9094 13.9032 23.0683 12.6984C23.259 11.4618 23.4814 10.2253 23.7357 8.98874C24.0217 7.72048 24.3713 6.59491 24.7845 5.61202C25.2294 4.59741 25.7379 3.77305 26.31 3.13892C26.9139 2.47309 27.6131 2.14018 28.4076 2.14018C28.789 2.14018 29.1545 2.21944 29.5041 2.37797C29.8537 2.5365 30.1556 2.75845 30.4098 3.04381C30.6959 3.29746 30.9184 3.61452 31.0773 3.99499C31.268 4.34376 31.3633 4.70839 31.3633 5.08886C31.3633 5.81811 31.1567 6.57906 30.7436 7.37172C30.3304 8.13267 29.9967 8.86191 29.7424 9.55945C29.4246 10.3838 29.1386 11.2557 28.8843 12.1752C28.6619 13.0947 28.5506 14.0142 28.5506 14.9337C28.5506 15.2824 28.7254 15.6154 29.075 15.9324C29.4246 16.2178 29.9013 16.4714 30.5052 16.6934C31.1408 16.9153 31.8718 17.0897 32.6981 17.2165C33.5562 17.3433 34.462 17.4068 35.4155 17.4068Z" fill="#BE2A2F"/>
<path d="M66.4551 2.09261C68.7434 2.09261 70.9045 2.5365 72.9386 3.42428C74.9726 4.28035 76.7365 5.46934 78.2302 6.99124C79.7557 8.48144 80.9475 10.2411 81.8057 12.2703C82.6955 14.2995 83.1405 16.4556 83.1405 18.7384C83.1405 21.0213 82.6955 23.1773 81.8057 25.2065C80.9475 27.2357 79.7557 29.0113 78.2302 30.5332C76.7365 32.0234 74.9726 33.2123 72.9386 34.1001C70.9045 34.9562 68.7434 35.3842 66.4551 35.3842C64.1668 35.3842 62.0057 34.9562 59.9716 34.1001C57.9376 33.2123 56.1578 32.0234 54.6323 30.5332C53.1386 29.0113 51.9468 27.2357 51.0569 25.2065C50.1988 23.1773 49.7697 21.0213 49.7697 18.7384C49.7697 16.4556 50.1988 14.2995 51.0569 12.2703C51.9468 10.2411 53.1386 8.48144 54.6323 6.99124C56.1578 5.46934 57.9376 4.28035 59.9716 3.42428C62.0057 2.5365 64.1668 2.09261 66.4551 2.09261ZM77.0384 20.4981C77.6105 20.4664 78.1031 20.2445 78.5163 19.8323C78.9294 19.3884 79.136 18.8811 79.136 18.3104V18.2628C79.136 16.7092 78.8023 15.2666 78.1349 13.9349C77.4675 12.5715 76.5617 11.3826 75.4175 10.368C74.2734 9.35336 72.9227 8.5607 71.3654 7.98999C69.8399 7.38757 68.2031 7.08636 66.4551 7.08636C64.7071 7.08636 63.0545 7.38757 61.4972 7.98999C59.9716 8.5607 58.6368 9.35336 57.4927 10.368C56.3485 11.3826 55.4428 12.5715 54.7753 13.9349C54.1079 15.2666 53.7742 16.7092 53.7742 18.2628V18.3104C53.7742 18.9128 53.9808 19.436 54.394 19.8799C54.8389 20.292 55.3792 20.4981 56.0148 20.4981C56.3644 20.4981 56.714 20.4189 57.0636 20.2603C57.4132 20.1018 57.731 19.9274 58.0171 19.7372C58.3667 19.5152 58.462 19.214 58.3031 18.8335C58.2078 18.5799 58.1124 18.2628 58.0171 17.8824C57.9535 17.5019 57.9217 17.1214 57.9217 16.7409C57.9217 16.3605 57.9853 16.0117 58.1124 15.6946C58.2713 15.3458 58.5415 15.0922 58.9229 14.9337C59.1771 14.8385 59.4314 14.791 59.6856 14.791C60.2895 14.791 60.8298 15.0763 61.3065 15.6471C61.815 16.1861 62.2281 16.8995 62.546 17.7872C62.6413 18.0726 62.546 18.4531 62.2599 18.9287C61.9739 19.3725 61.5766 19.8323 61.0681 20.3079C60.5596 20.7518 60.0034 21.1322 59.3996 21.4493C58.8275 21.7664 58.3031 21.9249 57.8264 21.9249C57.6357 21.9249 57.445 21.8773 57.2543 21.7822C57.1272 21.7188 57.0318 21.6871 56.9683 21.6871C56.7776 21.592 56.6028 21.5444 56.4439 21.5444C55.9989 21.5444 55.6335 21.7664 55.3474 22.2103C55.0932 22.6224 55.1091 23.0505 55.3951 23.4944C55.9672 24.3821 56.714 25.1907 57.6357 25.9199C58.5574 26.6491 59.5108 27.2991 60.496 27.8698C61.4813 28.4406 62.4188 28.932 63.3087 29.3442C64.2304 29.7247 64.9614 30.01 65.5017 30.2003C65.6606 30.2637 65.8195 30.3112 65.9784 30.3429C66.1373 30.3746 66.2962 30.3905 66.4551 30.3905C66.614 30.3905 66.757 30.3746 66.8842 30.3429C67.0431 30.3112 67.202 30.2637 67.3609 30.2003C67.9012 29.9783 68.6004 29.6771 69.4585 29.2966C70.3166 28.8844 71.2224 28.393 72.1758 27.8223C73.1293 27.2516 74.0509 26.6174 74.9408 25.9199C75.8307 25.2224 76.5776 24.4614 77.1814 23.637C77.4992 23.1932 77.531 22.7493 77.2768 22.3054C77.0225 21.8615 76.6729 21.6395 76.228 21.6395C76.0691 21.6395 75.8625 21.6871 75.6082 21.7822C75.4175 21.8773 75.211 21.9249 74.9885 21.9249C74.5118 21.9249 73.9715 21.7664 73.3676 21.4493C72.7956 21.1322 72.2553 20.7518 71.7468 20.3079C71.27 19.864 70.8886 19.4043 70.6026 18.9287C70.3166 18.4531 70.2212 18.0726 70.3166 17.7872C70.6026 16.8995 70.984 16.1861 71.4607 15.6471C71.9692 15.0763 72.5254 14.791 73.1293 14.791C73.4153 14.791 73.6696 14.8385 73.892 14.9337C74.2734 15.0922 74.5277 15.3458 74.6548 15.6946C74.8137 16.0117 74.8931 16.3605 74.8931 16.7409C74.8931 17.1214 74.8455 17.5019 74.7501 17.8824C74.6866 18.2628 74.6071 18.5799 74.5118 18.8335C74.4164 19.214 74.5277 19.5152 74.8455 19.7372C75.2904 20.0225 75.6877 20.2286 76.0373 20.3554C76.3869 20.4506 76.7206 20.4981 77.0384 20.4981Z" fill="#BE2A2F"/>
<path d="M90.745 35.3842C90.0458 35.3842 89.3943 35.083 88.7904 34.4806C88.1866 33.8782 87.6463 33.1172 87.1696 32.1977C86.6928 31.2466 86.2797 30.2002 85.9301 29.0588C85.5805 27.8857 85.2785 26.7443 85.0243 25.6345C84.8018 24.4931 84.6111 23.431 84.4522 22.4481C84.3251 21.4652 84.2456 20.6884 84.2139 20.1176C84.0867 17.486 84.1821 15.219 84.4999 13.3166C84.8177 11.4143 85.3262 9.70213 86.0254 8.18022C86.5022 7.19733 87.0583 6.32541 87.694 5.56445C88.3296 4.8035 89.1241 4.16938 90.0776 3.66208C91.031 3.12307 92.1593 2.71089 93.4623 2.42553C94.7654 2.14017 96.2909 1.9975 98.0389 1.9975C99.7233 1.9975 101.185 2.17188 102.425 2.52065C103.696 2.86942 104.792 3.32916 105.714 3.89988C106.636 4.43888 107.414 5.05715 108.05 5.75469C108.686 6.45223 109.194 7.16562 109.576 7.89487C110.338 9.32165 110.895 11.0021 111.244 12.9362C111.626 14.8703 111.8 16.836 111.769 18.8335C111.769 19.436 111.705 20.2762 111.578 21.3542C111.483 22.4005 111.308 23.5419 111.053 24.7785C110.831 26.015 110.545 27.2674 110.195 28.5357C109.846 29.7722 109.417 30.8978 108.908 31.9124C108.432 32.927 107.875 33.7672 107.24 34.433C106.636 35.0672 105.953 35.3842 105.19 35.3842C104.808 35.3842 104.427 35.305 104.046 35.1464C103.696 34.9562 103.378 34.7343 103.092 34.4806C102.806 34.1952 102.568 33.8782 102.377 33.5294C102.186 33.1489 102.091 32.7685 102.091 32.388C102.091 31.9758 102.234 31.4844 102.52 30.9136C102.838 30.3429 103.188 29.582 103.569 28.6308C103.982 27.6796 104.395 26.5065 104.808 25.1114C105.253 23.6846 105.619 21.9249 105.905 19.8323C106.096 18.247 106.143 16.8678 106.048 15.6946C105.953 14.5215 105.762 13.491 105.476 12.6033C105.19 11.7155 104.84 10.9545 104.427 10.3204C104.014 9.68627 103.617 9.11556 103.235 8.60826C102.377 8.16437 101.519 7.83146 100.661 7.60951C99.8346 7.38757 98.9288 7.2766 97.9435 7.2766C96.9265 7.2766 95.989 7.40342 95.1309 7.65707C94.3046 7.87901 93.4623 8.25949 92.6042 8.7985C92.2546 9.27409 91.8733 9.8131 91.4601 10.4155C91.0787 11.0179 90.745 11.763 90.459 12.6508C90.1729 13.5069 89.9663 14.5215 89.8392 15.6946C89.7439 16.8678 89.8074 18.247 90.0299 19.8323C90.3159 21.9249 90.6655 23.6846 91.0787 25.1114C91.5237 26.5065 91.9368 27.6796 92.3182 28.6308C92.7314 29.582 93.081 30.3429 93.367 30.9136C93.6848 31.4844 93.8437 31.9758 93.8437 32.388C93.8437 32.7685 93.7484 33.1489 93.5577 33.5294C93.367 33.8782 93.1286 34.1952 92.8426 34.4806C92.5566 34.7343 92.2228 34.9562 91.8415 35.1464C91.4919 35.305 91.1264 35.3842 90.745 35.3842Z" fill="#BE2A2F"/>
<path d="M112.71 18.5957C112.71 17.8982 112.758 17.0104 112.853 15.9324C112.948 14.8227 113.107 13.6654 113.33 12.4606C113.552 11.224 113.822 10.0033 114.14 8.7985C114.49 7.56195 114.887 6.45223 115.332 5.46934C115.809 4.48644 116.349 3.69378 116.953 3.09136C117.557 2.45724 118.24 2.14018 119.003 2.14018C119.829 2.14018 120.544 2.44139 121.148 3.04381C121.784 3.61452 122.102 4.31206 122.102 5.13642C122.102 5.48519 122.022 5.84981 121.863 6.23029C121.736 6.61076 121.577 7.00709 121.387 7.41927C121.196 7.79975 120.989 8.18022 120.767 8.5607C120.576 8.90947 120.417 9.25824 120.29 9.60701C119.972 10.3997 119.686 11.2716 119.432 12.2228C119.178 13.1423 118.971 14.0617 118.812 14.9812C120.624 13.9032 122.197 12.6191 123.532 11.1289C124.898 9.60701 125.915 7.84731 126.583 5.84981C126.773 5.31081 126.932 4.70838 127.06 4.04255C127.218 3.34501 127.409 2.71089 127.632 2.14018C127.886 1.53776 128.235 1.03046 128.68 0.618273C129.125 0.206091 129.745 0 130.54 0C131.366 0 132.081 0.30121 132.685 0.903629C133.321 1.50605 133.638 2.21944 133.638 3.04381C133.638 3.5194 133.543 4.12182 133.352 4.85106C133.162 5.5486 132.987 6.15102 132.828 6.65832C132.097 9.09971 131.08 11.224 129.777 13.0313C128.506 14.8385 126.932 16.4873 125.057 17.9775C127.282 19.4994 128.919 21.3859 129.968 23.637C131.048 25.8882 131.843 28.3454 132.351 31.0088C132.478 31.6746 132.59 32.3404 132.685 33.0063C132.812 33.6721 132.876 34.3379 132.876 35.0038C132.876 35.8281 132.574 36.5257 131.97 37.0964C131.366 37.6988 130.651 38 129.825 38C128.935 38 128.251 37.7464 127.775 37.2391C127.33 36.7635 126.996 36.161 126.774 35.4318C126.551 34.7343 126.408 34.005 126.344 33.2441C126.281 32.4514 126.186 31.7539 126.058 31.1514C125.836 30.01 125.55 28.9479 125.2 27.965C124.882 26.9821 124.453 26.1101 123.913 25.3492C123.373 24.5565 122.69 23.8748 121.863 23.3041C121.069 22.7017 120.068 22.2261 118.86 21.8773C119.082 22.9871 119.368 24.0809 119.718 25.1589C120.068 26.2053 120.433 27.2357 120.814 28.2503C121.037 28.8527 121.307 29.5186 121.625 30.2478C121.943 30.9771 122.102 31.6587 122.102 32.2929C122.102 33.1172 121.784 33.8306 121.148 34.433C120.544 35.0038 119.829 35.2891 119.003 35.2891C118.113 35.2891 117.334 34.9245 116.667 34.1952C116.19 33.7196 115.713 32.8636 115.237 31.627C114.76 30.3588 114.331 28.9637 113.95 27.4418C113.6 25.8882 113.298 24.3187 113.044 22.7334C112.821 21.1481 112.71 19.7689 112.71 18.5957Z" fill="#BE2A2F"/>
<path d="M140.927 35.4318C140.291 35.4318 139.703 35.1306 139.163 34.5282C138.623 33.9257 138.13 33.1648 137.685 32.2453C137.272 31.2941 136.891 30.2478 136.541 29.1064C136.223 27.9332 135.953 26.7918 135.731 25.6821C135.508 24.5407 135.333 23.4785 135.206 22.4956C135.111 21.5127 135.047 20.7359 135.016 20.1652C134.857 17.5019 134.92 15.2349 135.206 13.3642C135.524 11.4618 136.001 9.74969 136.636 8.22778C137.05 7.24489 137.542 6.37297 138.114 5.61202C138.718 4.85106 139.449 4.21694 140.307 3.70964C141.165 3.17063 142.182 2.75845 143.358 2.47309C144.534 2.18773 145.933 2.04506 147.553 2.04506C149.079 2.04506 150.414 2.21944 151.558 2.56821C152.702 2.91698 153.687 3.37672 154.514 3.94743C155.34 4.48644 156.039 5.10471 156.611 5.80225C157.183 6.49979 157.644 7.21318 157.994 7.94243C158.693 9.36921 159.201 11.0496 159.519 12.9837C159.869 14.9178 160.028 16.8836 159.996 18.8811C159.996 19.4835 159.932 20.3237 159.805 21.4018C159.71 22.4481 159.551 23.5895 159.329 24.826C159.138 26.0626 158.884 27.315 158.566 28.5832C158.248 29.8198 157.867 30.9453 157.422 31.9599C156.977 32.9746 156.468 33.8148 155.896 34.4806C155.356 35.1147 154.736 35.4318 154.037 35.4318C153.37 35.4318 152.75 35.1306 152.178 34.5282C151.606 33.894 151.32 33.1965 151.32 32.4355C151.32 32.0551 151.431 31.6112 151.653 31.1039C151.876 30.5966 152.146 29.9466 152.464 29.1539C152.782 28.3613 153.115 27.3784 153.465 26.2053C153.846 25.0321 154.18 23.6053 154.466 21.9249C153.544 22.4639 152.527 22.8919 151.415 23.209C150.303 23.4944 148.984 23.637 147.458 23.637C146.314 23.637 145.106 23.5578 143.835 23.3992C142.564 23.2407 141.467 22.9554 140.546 22.5432C140.832 24.0968 141.134 25.4285 141.451 26.5382C141.801 27.6162 142.135 28.5357 142.453 29.2966C142.77 30.0576 143.025 30.6917 143.215 31.199C143.438 31.6746 143.549 32.0868 143.549 32.4355C143.549 33.1965 143.279 33.894 142.739 34.5282C142.198 35.1306 141.594 35.4318 140.927 35.4318ZM139.974 16.3129C140.514 16.7885 141.42 17.2799 142.691 17.7872C143.962 18.2945 145.551 18.5482 147.458 18.5482C149.365 18.5482 150.922 18.3104 152.13 17.8348C153.37 17.3275 154.307 16.836 154.943 16.3605C154.911 15.2824 154.816 14.3312 154.657 13.5069C154.498 12.6825 154.291 11.9533 154.037 11.3191C153.783 10.6533 153.497 10.0667 153.179 9.55945C152.893 9.05215 152.607 8.59241 152.321 8.18022C150.827 7.29245 149.206 6.84856 147.458 6.84856C145.647 6.84856 143.994 7.35586 142.5 8.37046C141.96 9.09971 141.42 10.0826 140.879 11.3191C140.339 12.524 140.037 14.1886 139.974 16.3129Z" fill="#BE2A2F"/>
</svg>
